<svg xmlns="http://www.w3.org/2000/svg" width="820" height="280" viewBox="0 0 820 280">
<rect width="820" height="280" fill="#FFFFFF" rx="10"/>
<text x="36" y="18" fill="#1F2937" font-size="13" font-weight="700" font-family="-apple-system,BlinkMacSystemFont,sans-serif">Contributions</text>
<text x="784" y="18" text-anchor="end" fill="#6B7280" font-size="11" font-family="-apple-system,sans-serif">Sep 03 - Oct 03, 2026</text>
<rect x="36" y="22" width="130" height="28" rx="8" fill="#FFFFFF" stroke="#D1D5DB" stroke-width="1"/><text x="48" y="40" fill="#6B7280" font-size="10.5" font-family="-apple-system,BlinkMacSystemFont,sans-serif">Total</text><text x="154" y="40" text-anchor="end" fill="#1F2937" font-size="11.5" font-weight="700" font-family="ui-monospace,monospace">138</text>
<rect x="180" y="22" width="130" height="28" rx="8" fill="#FFFFFF" stroke="#D1D5DB" stroke-width="1"/><text x="192" y="40" fill="#6B7280" font-size="10.5" font-family="-apple-system,BlinkMacSystemFont,sans-serif">Daily avg</text><text x="298" y="40" text-anchor="end" fill="#1F2937" font-size="11.5" font-weight="700" font-family="ui-monospace,monospace">4.6</text>
<rect x="324" y="22" width="130" height="28" rx="8" fill="#FFFFFF" stroke="#D1D5DB" stroke-width="1"/><text x="336" y="40" fill="#6B7280" font-size="10.5" font-family="-apple-system,BlinkMacSystemFont,sans-serif">Best day</text><text x="442" y="40" text-anchor="end" fill="#1F2937" font-size="11.5" font-weight="700" font-family="ui-monospace,monospace">62</text>
<rect x="468" y="22" width="130" height="28" rx="8" fill="#FFFFFF" stroke="#D1D5DB" stroke-width="1"/><text x="480" y="40" fill="#6B7280" font-size="10.5" font-family="-apple-system,BlinkMacSystemFont,sans-serif">Active days</text><text x="586" y="40" text-anchor="end" fill="#1F2937" font-size="11.5" font-weight="700" font-family="ui-monospace,monospace">20/30</text>
<line x1="36" y1="197.5" x2="784" y2="197.5" stroke="#EEF1F4" stroke-width="0.75" stroke-dasharray="3,3"/><line x1="36" y1="157.0" x2="784" y2="157.0" stroke="#EEF1F4" stroke-width="0.75" stroke-dasharray="3,3"/><line x1="36" y1="116.5" x2="784" y2="116.5" stroke="#EEF1F4" stroke-width="0.75" stroke-dasharray="3,3"/><line x1="36" y1="76.0" x2="784" y2="76.0" stroke="#EEF1F4" stroke-width="0.75" stroke-dasharray="3,3"/>
<path d="M42.23,238.00 L54.70,238.00 L62.70,232.00 L50.23,232.00 Z" fill="#EEF1F4" stroke="#EEF1F4" stroke-width="0.5"/><path d="M67.17,238.00 L79.63,238.00 L87.63,232.00 L75.17,232.00 Z" fill="#EEF1F4" stroke="#EEF1F4" stroke-width="0.5"/><path d="M92.10,240.00 L104.57,240.00 L112.57,234.00 L100.10,234.00 Z" fill="#312E81" opacity="0.05"/><path d="M117.03,240.00 L129.50,240.00 L137.50,234.00 L125.03,234.00 Z" fill="#312E81" opacity="0.05"/><path d="M141.97,240.00 L154.43,240.00 L162.43,234.00 L149.97,234.00 Z" fill="#312E81" opacity="0.05"/><path d="M166.90,240.00 L179.37,240.00 L187.37,234.00 L174.90,234.00 Z" fill="#312E81" opacity="0.05"/><path d="M191.83,240.00 L204.30,240.00 L212.30,234.00 L199.83,234.00 Z" fill="#312E81" opacity="0.05"/><path d="M216.77,240.00 L229.23,240.00 L237.23,234.00 L224.77,234.00 Z" fill="#312E81" opacity="0.05"/><path d="M241.70,238.00 L254.17,238.00 L262.17,232.00 L249.70,232.00 Z" fill="#EEF1F4" stroke="#EEF1F4" stroke-width="0.5"/><path d="M266.63,238.00 L279.10,238.00 L287.10,232.00 L274.63,232.00 Z" fill="#EEF1F4" stroke="#EEF1F4" stroke-width="0.5"/><path d="M291.57,240.00 L304.03,240.00 L312.03,234.00 L299.57,234.00 Z" fill="#312E81" opacity="0.05"/><path d="M316.50,240.00 L328.97,240.00 L336.97,234.00 L324.50,234.00 Z" fill="#312E81" opacity="0.05"/><path d="M341.43,240.00 L353.90,240.00 L361.90,234.00 L349.43,234.00 Z" fill="#312E81" opacity="0.05"/><path d="M366.37,240.00 L378.83,240.00 L386.83,234.00 L374.37,234.00 Z" fill="#312E81" opacity="0.05"/><path d="M391.30,240.00 L403.77,240.00 L411.77,234.00 L399.30,234.00 Z" fill="#312E81" opacity="0.05"/><path d="M416.23,238.00 L428.70,238.00 L436.70,232.00 L424.23,232.00 Z" fill="#EEF1F4" stroke="#EEF1F4" stroke-width="0.5"/><path d="M441.17,240.00 L453.63,240.00 L461.63,234.00 L449.17,234.00 Z" fill="#312E81" opacity="0.05"/><path d="M466.10,240.00 L478.57,240.00 L486.57,234.00 L474.10,234.00 Z" fill="#312E81" opacity="0.05"/><path d="M491.03,238.00 L503.50,238.00 L511.50,232.00 L499.03,232.00 Z" fill="#EEF1F4" stroke="#EEF1F4" stroke-width="0.5"/><path d="M515.97,238.00 L528.43,238.00 L536.43,232.00 L523.97,232.00 Z" fill="#EEF1F4" stroke="#EEF1F4" stroke-width="0.5"/><path d="M540.90,240.00 L553.37,240.00 L561.37,234.00 L548.90,234.00 Z" fill="#312E81" opacity="0.05"/><path d="M565.83,238.00 L578.30,238.00 L586.30,232.00 L573.83,232.00 Z" fill="#EEF1F4" stroke="#EEF1F4" stroke-width="0.5"/><path d="M590.77,240.00 L603.23,240.00 L611.23,234.00 L598.77,234.00 Z" fill="#312E81" opacity="0.05"/><path d="M615.70,238.00 L628.17,238.00 L636.17,232.00 L623.70,232.00 Z" fill="#EEF1F4" stroke="#EEF1F4" stroke-width="0.5"/><path d="M640.63,240.00 L653.10,240.00 L661.10,234.00 L648.63,234.00 Z" fill="#312E81" opacity="0.05"/><path d="M665.57,240.00 L678.03,240.00 L686.03,234.00 L673.57,234.00 Z" fill="#312E81" opacity="0.05"/><path d="M690.50,240.00 L702.97,240.00 L710.97,234.00 L698.50,234.00 Z" fill="#312E81" opacity="0.05"/><path d="M715.43,240.00 L727.90,240.00 L735.90,234.00 L723.43,234.00 Z" fill="#312E81" opacity="0.05"/><path d="M740.37,238.00 L752.83,238.00 L760.83,232.00 L748.37,232.00 Z" fill="#EEF1F4" stroke="#EEF1F4" stroke-width="0.5"/><path d="M765.30,240.00 L777.77,240.00 L785.77,234.00 L773.30,234.00 Z" fill="#312E81" opacity="0.05"/>
<line x1="36" y1="238.0" x2="784" y2="238.0" stroke="#D1D5DB" stroke-width="1"/>
<text x="52.47" y="246" text-anchor="middle" fill="#6B7280" font-size="9.5" font-family="ui-monospace,monospace">09-04</text><path d="M94.10,217.10 L102.57,217.10 Q104.57,217.10 104.57,219.10 L104.57,238.00 L92.10,238.00 L92.10,219.10 Q92.10,217.10 94.10,217.10 Z" fill="#6366F1" fill-opacity="0.62" stroke="#6366F1" stroke-opacity="0.12" stroke-width="0.6"/><path d="M104.57,219.10 Q104.57,217.10 106.57,217.10 L112.57,211.10 L112.57,232.00 L104.57,238.00 Z" fill="#A5B4FC" fill-opacity="0.62" stroke="#6366F1" stroke-opacity="0.12" stroke-width="0.6"/><path d="M92.10,217.10 L104.57,217.10 L112.57,211.10 L100.10,211.10 Z" fill="#E0E7FF" fill-opacity="0.62" stroke="#6366F1" stroke-opacity="0.12" stroke-width="0.6"/><path d="M119.03,217.10 L127.50,217.10 Q129.50,217.10 129.50,219.10 L129.50,238.00 L117.03,238.00 L117.03,219.10 Q117.03,217.10 119.03,217.10 Z" fill="#6366F1" fill-opacity="0.62" stroke="#6366F1" stroke-opacity="0.12" stroke-width="0.6"/><path d="M129.50,219.10 Q129.50,217.10 131.50,217.10 L137.50,211.10 L137.50,232.00 L129.50,238.00 Z" fill="#A5B4FC" fill-opacity="0.62" stroke="#6366F1" stroke-opacity="0.12" stroke-width="0.6"/><path d="M117.03,217.10 L129.50,217.10 L137.50,211.10 L125.03,211.10 Z" fill="#E0E7FF" fill-opacity="0.62" stroke="#6366F1" stroke-opacity="0.12" stroke-width="0.6"/><path d="M143.97,233.00 L152.43,233.00 Q154.43,233.00 154.43,235.00 L154.43,238.00 L141.97,238.00 L141.97,235.00 Q141.97,233.00 143.97,233.00 Z" fill="#6366F1" fill-opacity="0.62" stroke="#6366F1" stroke-opacity="0.12" stroke-width="0.6"/><path d="M154.43,235.00 Q154.43,233.00 156.43,233.00 L162.43,227.00 L162.43,232.00 L154.43,238.00 Z" fill="#A5B4FC" fill-opacity="0.62" stroke="#6366F1" stroke-opacity="0.12" stroke-width="0.6"/><path d="M141.97,233.00 L154.43,233.00 L162.43,227.00 L149.97,227.00 Z" fill="#E0E7FF" fill-opacity="0.62" stroke="#6366F1" stroke-opacity="0.12" stroke-width="0.6"/><path d="M168.90,233.00 L177.37,233.00 Q179.37,233.00 179.37,235.00 L179.37,238.00 L166.90,238.00 L166.90,235.00 Q166.90,233.00 168.90,233.00 Z" fill="#6366F1" fill-opacity="0.62" stroke="#6366F1" stroke-opacity="0.12" stroke-width="0.6"/><path d="M179.37,235.00 Q179.37,233.00 181.37,233.00 L187.37,227.00 L187.37,232.00 L179.37,238.00 Z" fill="#A5B4FC" fill-opacity="0.62" stroke="#6366F1" stroke-opacity="0.12" stroke-width="0.6"/><path d="M166.90,233.00 L179.37,233.00 L187.37,227.00 L174.90,227.00 Z" fill="#E0E7FF" fill-opacity="0.62" stroke="#6366F1" stroke-opacity="0.12" stroke-width="0.6"/><text x="177.13" y="246" text-anchor="middle" fill="#6B7280" font-size="9.5" font-family="ui-monospace,monospace">09-09</text><path d="M193.83,233.00 L202.30,233.00 Q204.30,233.00 204.30,235.00 L204.30,238.00 L191.83,238.00 L191.83,235.00 Q191.83,233.00 193.83,233.00 Z" fill="#6366F1" fill-opacity="0.62" stroke="#6366F1" stroke-opacity="0.12" stroke-width="0.6"/><path d="M204.30,235.00 Q204.30,233.00 206.30,233.00 L212.30,227.00 L212.30,232.00 L204.30,238.00 Z" fill="#A5B4FC" fill-opacity="0.62" stroke="#6366F1" stroke-opacity="0.12" stroke-width="0.6"/><path d="M191.83,233.00 L204.30,233.00 L212.30,227.00 L199.83,227.00 Z" fill="#E0E7FF" fill-opacity="0.62" stroke="#6366F1" stroke-opacity="0.12" stroke-width="0.6"/><path d="M218.77,219.71 L227.23,219.71 Q229.23,219.71 229.23,221.71 L229.23,238.00 L216.77,238.00 L216.77,221.71 Q216.77,219.71 218.77,219.71 Z" fill="#6366F1" fill-opacity="0.62" stroke="#6366F1" stroke-opacity="0.12" stroke-width="0.6"/><path d="M229.23,221.71 Q229.23,219.71 231.23,219.71 L237.23,213.71 L237.23,232.00 L229.23,238.00 Z" fill="#A5B4FC" fill-opacity="0.62" stroke="#6366F1" stroke-opacity="0.12" stroke-width="0.6"/><path d="M216.77,219.71 L229.23,219.71 L237.23,213.71 L224.77,213.71 Z" fill="#E0E7FF" fill-opacity="0.62" stroke="#6366F1" stroke-opacity="0.12" stroke-width="0.6"/><path d="M293.57,232.77 L302.03,232.77 Q304.03,232.77 304.03,234.77 L304.03,238.00 L291.57,238.00 L291.57,234.77 Q291.57,232.77 293.57,232.77 Z" fill="#6366F1" fill-opacity="0.62" stroke="#6366F1" stroke-opacity="0.12" stroke-width="0.6"/><path d="M304.03,234.77 Q304.03,232.77 306.03,232.77 L312.03,226.77 L312.03,232.00 L304.03,238.00 Z" fill="#A5B4FC" fill-opacity="0.62" stroke="#6366F1" stroke-opacity="0.12" stroke-width="0.6"/><path d="M291.57,232.77 L304.03,232.77 L312.03,226.77 L299.57,226.77 Z" fill="#E0E7FF" fill-opacity="0.62" stroke="#6366F1" stroke-opacity="0.12" stroke-width="0.6"/><text x="301.80" y="246" text-anchor="middle" fill="#6B7280" font-size="9.5" font-family="ui-monospace,monospace">09-14</text><path d="M318.50,232.77 L326.97,232.77 Q328.97,232.77 328.97,234.77 L328.97,238.00 L316.50,238.00 L316.50,234.77 Q316.50,232.77 318.50,232.77 Z" fill="#6366F1" fill-opacity="0.62" stroke="#6366F1" stroke-opacity="0.12" stroke-width="0.6"/><path d="M328.97,234.77 Q328.97,232.77 330.97,232.77 L336.97,226.77 L336.97,232.00 L328.97,238.00 Z" fill="#A5B4FC" fill-opacity="0.62" stroke="#6366F1" stroke-opacity="0.12" stroke-width="0.6"/><path d="M316.50,232.77 L328.97,232.77 L336.97,226.77 L324.50,226.77 Z" fill="#E0E7FF" fill-opacity="0.62" stroke="#6366F1" stroke-opacity="0.12" stroke-width="0.6"/><path d="M343.43,198.81 L351.90,198.81 Q353.90,198.81 353.90,200.81 L353.90,238.00 L341.43,238.00 L341.43,200.81 Q341.43,198.81 343.43,198.81 Z" fill="#6366F1" fill-opacity="0.78" stroke="#6366F1" stroke-opacity="0.12" stroke-width="0.6"/><path d="M353.90,200.81 Q353.90,198.81 355.90,198.81 L361.90,192.81 L361.90,232.00 L353.90,238.00 Z" fill="#A5B4FC" fill-opacity="0.78" stroke="#6366F1" stroke-opacity="0.12" stroke-width="0.6"/><path d="M341.43,198.81 L353.90,198.81 L361.90,192.81 L349.43,192.81 Z" fill="#E0E7FF" fill-opacity="0.78" stroke="#6366F1" stroke-opacity="0.12" stroke-width="0.6"/><path d="M368.37,76.00 L376.83,76.00 Q378.83,76.00 378.83,78.00 L378.83,238.00 L366.37,238.00 L366.37,78.00 Q366.37,76.00 368.37,76.00 Z" fill="#6366F1" fill-opacity="1.00" stroke="#6366F1" stroke-opacity="0.12" stroke-width="0.6"/><path d="M378.83,78.00 Q378.83,76.00 380.83,76.00 L386.83,70.00 L386.83,232.00 L378.83,238.00 Z" fill="#A5B4FC" fill-opacity="1.00" stroke="#6366F1" stroke-opacity="0.12" stroke-width="0.6"/><path d="M366.37,76.00 L378.83,76.00 L386.83,70.00 L374.37,70.00 Z" fill="#E0E7FF" fill-opacity="1.00" stroke="#6366F1" stroke-opacity="0.12" stroke-width="0.6"/><text x="376.60" y="66.0" text-anchor="middle" fill="#6366F1" font-size="9.5" font-weight="600" font-family="ui-monospace,monospace">62</text><path d="M393.30,217.10 L401.77,217.10 Q403.77,217.10 403.77,219.10 L403.77,238.00 L391.30,238.00 L391.30,219.10 Q391.30,217.10 393.30,217.10 Z" fill="#6366F1" fill-opacity="0.62" stroke="#6366F1" stroke-opacity="0.12" stroke-width="0.6"/><path d="M403.77,219.10 Q403.77,217.10 405.77,217.10 L411.77,211.10 L411.77,232.00 L403.77,238.00 Z" fill="#A5B4FC" fill-opacity="0.62" stroke="#6366F1" stroke-opacity="0.12" stroke-width="0.6"/><path d="M391.30,217.10 L403.77,217.10 L411.77,211.10 L399.30,211.10 Z" fill="#E0E7FF" fill-opacity="0.62" stroke="#6366F1" stroke-opacity="0.12" stroke-width="0.6"/><text x="426.47" y="246" text-anchor="middle" fill="#6B7280" font-size="9.5" font-family="ui-monospace,monospace">09-19</text><path d="M443.17,232.77 L451.63,232.77 Q453.63,232.77 453.63,234.77 L453.63,238.00 L441.17,238.00 L441.17,234.77 Q441.17,232.77 443.17,232.77 Z" fill="#6366F1" fill-opacity="0.62" stroke="#6366F1" stroke-opacity="0.12" stroke-width="0.6"/><path d="M453.63,234.77 Q453.63,232.77 455.63,232.77 L461.63,226.77 L461.63,232.00 L453.63,238.00 Z" fill="#A5B4FC" fill-opacity="0.62" stroke="#6366F1" stroke-opacity="0.12" stroke-width="0.6"/><path d="M441.17,232.77 L453.63,232.77 L461.63,226.77 L449.17,226.77 Z" fill="#E0E7FF" fill-opacity="0.62" stroke="#6366F1" stroke-opacity="0.12" stroke-width="0.6"/><path d="M468.10,232.77 L476.57,232.77 Q478.57,232.77 478.57,234.77 L478.57,238.00 L466.10,238.00 L466.10,234.77 Q466.10,232.77 468.10,232.77 Z" fill="#6366F1" fill-opacity="0.62" stroke="#6366F1" stroke-opacity="0.12" stroke-width="0.6"/><path d="M478.57,234.77 Q478.57,232.77 480.57,232.77 L486.57,226.77 L486.57,232.00 L478.57,238.00 Z" fill="#A5B4FC" fill-opacity="0.62" stroke="#6366F1" stroke-opacity="0.12" stroke-width="0.6"/><path d="M466.10,232.77 L478.57,232.77 L486.57,226.77 L474.10,226.77 Z" fill="#E0E7FF" fill-opacity="0.62" stroke="#6366F1" stroke-opacity="0.12" stroke-width="0.6"/><path d="M542.90,227.55 L551.37,227.55 Q553.37,227.55 553.37,229.55 L553.37,238.00 L540.90,238.00 L540.90,229.55 Q540.90,227.55 542.90,227.55 Z" fill="#6366F1" fill-opacity="0.62" stroke="#6366F1" stroke-opacity="0.12" stroke-width="0.6"/><path d="M553.37,229.55 Q553.37,227.55 555.37,227.55 L561.37,221.55 L561.37,232.00 L553.37,238.00 Z" fill="#A5B4FC" fill-opacity="0.62" stroke="#6366F1" stroke-opacity="0.12" stroke-width="0.6"/><path d="M540.90,227.55 L553.37,227.55 L561.37,221.55 L548.90,221.55 Z" fill="#E0E7FF" fill-opacity="0.62" stroke="#6366F1" stroke-opacity="0.12" stroke-width="0.6"/><text x="551.13" y="246" text-anchor="middle" fill="#6B7280" font-size="9.5" font-family="ui-monospace,monospace">09-24</text><path d="M592.77,233.00 L601.23,233.00 Q603.23,233.00 603.23,235.00 L603.23,238.00 L590.77,238.00 L590.77,235.00 Q590.77,233.00 592.77,233.00 Z" fill="#6366F1" fill-opacity="0.62" stroke="#6366F1" stroke-opacity="0.12" stroke-width="0.6"/><path d="M603.23,235.00 Q603.23,233.00 605.23,233.00 L611.23,227.00 L611.23,232.00 L603.23,238.00 Z" fill="#A5B4FC" fill-opacity="0.62" stroke="#6366F1" stroke-opacity="0.12" stroke-width="0.6"/><path d="M590.77,233.00 L603.23,233.00 L611.23,227.00 L598.77,227.00 Z" fill="#E0E7FF" fill-opacity="0.62" stroke="#6366F1" stroke-opacity="0.12" stroke-width="0.6"/><path d="M642.63,233.00 L651.10,233.00 Q653.10,233.00 653.10,235.00 L653.10,238.00 L640.63,238.00 L640.63,235.00 Q640.63,233.00 642.63,233.00 Z" fill="#6366F1" fill-opacity="0.62" stroke="#6366F1" stroke-opacity="0.12" stroke-width="0.6"/><path d="M653.10,235.00 Q653.10,233.00 655.10,233.00 L661.10,227.00 L661.10,232.00 L653.10,238.00 Z" fill="#A5B4FC" fill-opacity="0.62" stroke="#6366F1" stroke-opacity="0.12" stroke-width="0.6"/><path d="M640.63,233.00 L653.10,233.00 L661.10,227.00 L648.63,227.00 Z" fill="#E0E7FF" fill-opacity="0.62" stroke="#6366F1" stroke-opacity="0.12" stroke-width="0.6"/><path d="M667.57,233.00 L676.03,233.00 Q678.03,233.00 678.03,235.00 L678.03,238.00 L665.57,238.00 L665.57,235.00 Q665.57,233.00 667.57,233.00 Z" fill="#6366F1" fill-opacity="0.62" stroke="#6366F1" stroke-opacity="0.12" stroke-width="0.6"/><path d="M678.03,235.00 Q678.03,233.00 680.03,233.00 L686.03,227.00 L686.03,232.00 L678.03,238.00 Z" fill="#A5B4FC" fill-opacity="0.62" stroke="#6366F1" stroke-opacity="0.12" stroke-width="0.6"/><path d="M665.57,233.00 L678.03,233.00 L686.03,227.00 L673.57,227.00 Z" fill="#E0E7FF" fill-opacity="0.62" stroke="#6366F1" stroke-opacity="0.12" stroke-width="0.6"/><text x="675.80" y="246" text-anchor="middle" fill="#6B7280" font-size="9.5" font-family="ui-monospace,monospace">09-29</text><path d="M692.50,233.00 L700.97,233.00 Q702.97,233.00 702.97,235.00 L702.97,238.00 L690.50,238.00 L690.50,235.00 Q690.50,233.00 692.50,233.00 Z" fill="#6366F1" fill-opacity="0.62" stroke="#6366F1" stroke-opacity="0.12" stroke-width="0.6"/><path d="M702.97,235.00 Q702.97,233.00 704.97,233.00 L710.97,227.00 L710.97,232.00 L702.97,238.00 Z" fill="#A5B4FC" fill-opacity="0.62" stroke="#6366F1" stroke-opacity="0.12" stroke-width="0.6"/><path d="M690.50,233.00 L702.97,233.00 L710.97,227.00 L698.50,227.00 Z" fill="#E0E7FF" fill-opacity="0.62" stroke="#6366F1" stroke-opacity="0.12" stroke-width="0.6"/><path d="M717.43,233.00 L725.90,233.00 Q727.90,233.00 727.90,235.00 L727.90,238.00 L715.43,238.00 L715.43,235.00 Q715.43,233.00 717.43,233.00 Z" fill="#6366F1" fill-opacity="0.62" stroke="#6366F1" stroke-opacity="0.12" stroke-width="0.6"/><path d="M727.90,235.00 Q727.90,233.00 729.90,233.00 L735.90,227.00 L735.90,232.00 L727.90,238.00 Z" fill="#A5B4FC" fill-opacity="0.62" stroke="#6366F1" stroke-opacity="0.12" stroke-width="0.6"/><path d="M715.43,233.00 L727.90,233.00 L735.90,227.00 L723.43,227.00 Z" fill="#E0E7FF" fill-opacity="0.62" stroke="#6366F1" stroke-opacity="0.12" stroke-width="0.6"/><path d="M767.30,233.00 L775.77,233.00 Q777.77,233.00 777.77,235.00 L777.77,238.00 L765.30,238.00 L765.30,235.00 Q765.30,233.00 767.30,233.00 Z" fill="#6366F1" fill-opacity="0.62" stroke="#6366F1" stroke-opacity="0.12" stroke-width="0.6"/><path d="M777.77,235.00 Q777.77,233.00 779.77,233.00 L785.77,227.00 L785.77,232.00 L777.77,238.00 Z" fill="#A5B4FC" fill-opacity="0.62" stroke="#6366F1" stroke-opacity="0.12" stroke-width="0.6"/><path d="M765.30,233.00 L777.77,233.00 L785.77,227.00 L773.30,227.00 Z" fill="#E0E7FF" fill-opacity="0.62" stroke="#6366F1" stroke-opacity="0.12" stroke-width="0.6"/>
</svg>